<svg xmlns="http://www.w3.org/2000/svg" xmlns:xlink="http://www.w3.org/1999/xlink" viewBox="0 -8 60 75" version="1.1" xml:space="preserve" style="" x="0px" y="0px" fill-rule="evenodd" clip-rule="evenodd" stroke-linejoin="round" stroke-miterlimit="1.41421"><g transform="matrix(1,0,0,1,0,1)"><path d="M25.004,11.012L27.004,11.012L27.004,12.012L29.004,12.012L29.004,13.012L31,13.012L31,12.012L33,12.012L33,11.012L35,11.012L35,10.012L57,10.012L57,44L35,44L35,45L33,45L33,46L31,46L31,47L29,47L29,46L27.004,46L27.004,45L25.004,45L25.004,44L3.004,44L3.004,10.012L25.004,10.012L25.004,11.012ZM25.004,12.012L5.004,12.012L5.004,42L25.004,42L25.004,43L27.004,43L27.004,44L29.004,44L29.004,15.012L29,15.012L29,14.012L27.004,14.012L27.004,13.012L25.004,13.012L25.004,12.012ZM35,12.012L35,13.012L33,13.012L33,14.012L31,14.012L31,15L31.004,15L31.004,44L33,44L33,43L35,43L35,42L55,42L55,12.012L35,12.012ZM35,36.005L51,36.005L51,37.005L35,37.005L35,36.005ZM25.004,37.005L9.004,37.005L9.004,36.005L25.004,36.005L25.004,37.005ZM35,32.005L51,32.005L51,33.005L35,33.005L35,32.005ZM25.004,33.005L9.004,33.005L9.004,32.005L25.004,32.005L25.004,33.005ZM35,28.019L51,28.019L51,29.019L35,29.019L35,28.019ZM25.004,29.019L9.004,29.019L9.004,28.019L25.004,28.019L25.004,29.019ZM35,24.019L51,24.019L51,25.019L35,25.019L35,24.019ZM25.004,25.019L9.004,25.019L9.004,24.019L25.004,24.019L25.004,25.019ZM35,20L51,20L51,21L35,21L35,20ZM25.004,21L9.004,21L9.004,20L25.004,20L25.004,21ZM35,16L51,16L51,17L35,17L35,16ZM25.004,17L9.004,17L9.004,16L25.004,16L25.004,17Z" style="" fill="gray"/></g><!--<text x="0" y="75" fill="#000000" font-size="5px" font-weight="bold" font-family="'Helvetica Neue', Helvetica, Arial-Unicode, Arial, Sans-serif">Created by James Stone</text><text x="0" y="80" fill="#000000" font-size="5px" font-weight="bold" font-family="'Helvetica Neue', Helvetica, Arial-Unicode, Arial, Sans-serif">from the Noun Project</text>--></svg>